<mxfile host="Electron" agent="Mozilla/5.0 (Windows NT 10.0; Win64; x64) AppleWebKit/537.36 (KHTML, like Gecko) draw.io/24.7.8 Chrome/128.0.6613.36 Electron/32.0.1 Safari/537.36" version="24.7.8">
  <diagram name="Page-1" id="MPvUv_qCUAm3NtreN3pb">
    <mxGraphModel dx="2206" dy="1286" grid="1" gridSize="10" guides="1" tooltips="1" connect="1" arrows="1" fold="1" page="1" pageScale="1" pageWidth="1920" pageHeight="1200" math="0" shadow="0">
      <root>
        <mxCell id="0" />
        <mxCell id="1" parent="0" />
        <mxCell id="pS2DYy71IKiF--Z-IAtA-1" value="&lt;font style=&quot;font-size: 72px;&quot;&gt;(c) 2024 Adrian Simonides&lt;/font&gt;" style="text;html=1;align=center;verticalAlign=middle;resizable=0;points=[];autosize=1;strokeColor=none;fillColor=none;" vertex="1" parent="1">
          <mxGeometry x="940" y="86.46" width="870" height="100" as="geometry" />
        </mxCell>
        <mxCell id="pS2DYy71IKiF--Z-IAtA-72" style="edgeStyle=orthogonalEdgeStyle;rounded=0;orthogonalLoop=1;jettySize=auto;html=1;exitX=1;exitY=0.5;exitDx=0;exitDy=0;entryX=0.5;entryY=0;entryDx=0;entryDy=0;" edge="1" parent="1" source="pS2DYy71IKiF--Z-IAtA-75" target="pS2DYy71IKiF--Z-IAtA-71">
          <mxGeometry relative="1" as="geometry" />
        </mxCell>
        <mxCell id="pS2DYy71IKiF--Z-IAtA-4" value="VSTUP&amp;nbsp;&lt;div&gt;A&lt;/div&gt;" style="shape=parallelogram;perimeter=parallelogramPerimeter;whiteSpace=wrap;html=1;fixedSize=1;" vertex="1" parent="1">
          <mxGeometry x="260" y="463.54" width="120" height="60" as="geometry" />
        </mxCell>
        <mxCell id="pS2DYy71IKiF--Z-IAtA-25" style="edgeStyle=orthogonalEdgeStyle;rounded=0;orthogonalLoop=1;jettySize=auto;html=1;exitX=1;exitY=0.5;exitDx=0;exitDy=0;" edge="1" parent="1" source="pS2DYy71IKiF--Z-IAtA-5" target="pS2DYy71IKiF--Z-IAtA-6">
          <mxGeometry relative="1" as="geometry" />
        </mxCell>
        <mxCell id="pS2DYy71IKiF--Z-IAtA-51" style="edgeStyle=orthogonalEdgeStyle;rounded=0;orthogonalLoop=1;jettySize=auto;html=1;exitX=0;exitY=0.5;exitDx=0;exitDy=0;entryX=0;entryY=0.75;entryDx=0;entryDy=0;" edge="1" parent="1" source="pS2DYy71IKiF--Z-IAtA-5" target="pS2DYy71IKiF--Z-IAtA-39">
          <mxGeometry relative="1" as="geometry">
            <Array as="points">
              <mxPoint x="200" y="614" />
              <mxPoint x="200" y="450" />
              <mxPoint x="480" y="450" />
            </Array>
          </mxGeometry>
        </mxCell>
        <mxCell id="pS2DYy71IKiF--Z-IAtA-5" value="A = 0" style="rhombus;whiteSpace=wrap;html=1;" vertex="1" parent="1">
          <mxGeometry x="270" y="573.54" width="80" height="80" as="geometry" />
        </mxCell>
        <mxCell id="pS2DYy71IKiF--Z-IAtA-26" style="edgeStyle=orthogonalEdgeStyle;rounded=0;orthogonalLoop=1;jettySize=auto;html=1;exitX=1;exitY=0.5;exitDx=0;exitDy=0;entryX=0.5;entryY=0;entryDx=0;entryDy=0;" edge="1" parent="1" source="pS2DYy71IKiF--Z-IAtA-6" target="pS2DYy71IKiF--Z-IAtA-7">
          <mxGeometry relative="1" as="geometry" />
        </mxCell>
        <mxCell id="pS2DYy71IKiF--Z-IAtA-57" style="edgeStyle=orthogonalEdgeStyle;rounded=0;orthogonalLoop=1;jettySize=auto;html=1;exitX=0;exitY=0.5;exitDx=0;exitDy=0;entryX=1;entryY=0.5;entryDx=0;entryDy=0;" edge="1" parent="1" source="pS2DYy71IKiF--Z-IAtA-6" target="pS2DYy71IKiF--Z-IAtA-45">
          <mxGeometry relative="1" as="geometry" />
        </mxCell>
        <mxCell id="pS2DYy71IKiF--Z-IAtA-6" value="A = 1" style="rhombus;whiteSpace=wrap;html=1;" vertex="1" parent="1">
          <mxGeometry x="400" y="693.54" width="80" height="80" as="geometry" />
        </mxCell>
        <mxCell id="pS2DYy71IKiF--Z-IAtA-27" style="edgeStyle=orthogonalEdgeStyle;rounded=0;orthogonalLoop=1;jettySize=auto;html=1;exitX=1;exitY=0.5;exitDx=0;exitDy=0;entryX=0.5;entryY=0;entryDx=0;entryDy=0;" edge="1" parent="1" source="pS2DYy71IKiF--Z-IAtA-7" target="pS2DYy71IKiF--Z-IAtA-8">
          <mxGeometry relative="1" as="geometry" />
        </mxCell>
        <mxCell id="pS2DYy71IKiF--Z-IAtA-55" style="edgeStyle=orthogonalEdgeStyle;rounded=0;orthogonalLoop=1;jettySize=auto;html=1;exitX=0;exitY=0.5;exitDx=0;exitDy=0;entryX=1;entryY=0.5;entryDx=0;entryDy=0;" edge="1" parent="1" source="pS2DYy71IKiF--Z-IAtA-7" target="pS2DYy71IKiF--Z-IAtA-46">
          <mxGeometry relative="1" as="geometry" />
        </mxCell>
        <mxCell id="pS2DYy71IKiF--Z-IAtA-7" value="A = 2" style="rhombus;whiteSpace=wrap;html=1;" vertex="1" parent="1">
          <mxGeometry x="550" y="803.54" width="80" height="80" as="geometry" />
        </mxCell>
        <mxCell id="pS2DYy71IKiF--Z-IAtA-28" style="edgeStyle=orthogonalEdgeStyle;rounded=0;orthogonalLoop=1;jettySize=auto;html=1;exitX=1;exitY=0.5;exitDx=0;exitDy=0;" edge="1" parent="1" source="pS2DYy71IKiF--Z-IAtA-8" target="pS2DYy71IKiF--Z-IAtA-10">
          <mxGeometry relative="1" as="geometry" />
        </mxCell>
        <mxCell id="pS2DYy71IKiF--Z-IAtA-54" style="edgeStyle=orthogonalEdgeStyle;rounded=0;orthogonalLoop=1;jettySize=auto;html=1;exitX=0;exitY=0.5;exitDx=0;exitDy=0;entryX=1;entryY=0.5;entryDx=0;entryDy=0;" edge="1" parent="1" source="pS2DYy71IKiF--Z-IAtA-8" target="pS2DYy71IKiF--Z-IAtA-47">
          <mxGeometry relative="1" as="geometry" />
        </mxCell>
        <mxCell id="pS2DYy71IKiF--Z-IAtA-8" value="A= 3" style="rhombus;whiteSpace=wrap;html=1;" vertex="1" parent="1">
          <mxGeometry x="700" y="913.54" width="80" height="80" as="geometry" />
        </mxCell>
        <mxCell id="pS2DYy71IKiF--Z-IAtA-29" style="edgeStyle=orthogonalEdgeStyle;rounded=0;orthogonalLoop=1;jettySize=auto;html=1;exitX=1;exitY=0.5;exitDx=0;exitDy=0;entryX=0.5;entryY=0;entryDx=0;entryDy=0;" edge="1" parent="1" source="pS2DYy71IKiF--Z-IAtA-10" target="pS2DYy71IKiF--Z-IAtA-11">
          <mxGeometry relative="1" as="geometry" />
        </mxCell>
        <mxCell id="pS2DYy71IKiF--Z-IAtA-53" style="edgeStyle=orthogonalEdgeStyle;rounded=0;orthogonalLoop=1;jettySize=auto;html=1;exitX=0;exitY=0.5;exitDx=0;exitDy=0;entryX=1;entryY=0.5;entryDx=0;entryDy=0;" edge="1" parent="1" source="pS2DYy71IKiF--Z-IAtA-10" target="pS2DYy71IKiF--Z-IAtA-48">
          <mxGeometry relative="1" as="geometry" />
        </mxCell>
        <mxCell id="pS2DYy71IKiF--Z-IAtA-10" value="A = 4" style="rhombus;whiteSpace=wrap;html=1;" vertex="1" parent="1">
          <mxGeometry x="890" y="1003.54" width="80" height="80" as="geometry" />
        </mxCell>
        <mxCell id="pS2DYy71IKiF--Z-IAtA-52" style="edgeStyle=orthogonalEdgeStyle;rounded=0;orthogonalLoop=1;jettySize=auto;html=1;exitX=0;exitY=0.5;exitDx=0;exitDy=0;entryX=1;entryY=0.5;entryDx=0;entryDy=0;" edge="1" parent="1" source="pS2DYy71IKiF--Z-IAtA-11" target="pS2DYy71IKiF--Z-IAtA-49">
          <mxGeometry relative="1" as="geometry" />
        </mxCell>
        <mxCell id="pS2DYy71IKiF--Z-IAtA-68" style="edgeStyle=orthogonalEdgeStyle;rounded=0;orthogonalLoop=1;jettySize=auto;html=1;exitX=1;exitY=0.5;exitDx=0;exitDy=0;entryX=0;entryY=0.5;entryDx=0;entryDy=0;" edge="1" parent="1" source="pS2DYy71IKiF--Z-IAtA-11" target="pS2DYy71IKiF--Z-IAtA-67">
          <mxGeometry relative="1" as="geometry" />
        </mxCell>
        <mxCell id="pS2DYy71IKiF--Z-IAtA-11" value="A = 5" style="rhombus;whiteSpace=wrap;html=1;" vertex="1" parent="1">
          <mxGeometry x="1030" y="1083.54" width="80" height="80" as="geometry" />
        </mxCell>
        <mxCell id="pS2DYy71IKiF--Z-IAtA-41" style="edgeStyle=orthogonalEdgeStyle;rounded=0;orthogonalLoop=1;jettySize=auto;html=1;exitX=0.5;exitY=1;exitDx=0;exitDy=0;entryX=0.5;entryY=0;entryDx=0;entryDy=0;" edge="1" parent="1" source="pS2DYy71IKiF--Z-IAtA-65" target="pS2DYy71IKiF--Z-IAtA-4">
          <mxGeometry relative="1" as="geometry">
            <mxPoint x="320" y="393.54" as="sourcePoint" />
          </mxGeometry>
        </mxCell>
        <mxCell id="pS2DYy71IKiF--Z-IAtA-66" style="edgeStyle=orthogonalEdgeStyle;rounded=0;orthogonalLoop=1;jettySize=auto;html=1;exitX=0.5;exitY=1;exitDx=0;exitDy=0;entryX=0.5;entryY=0;entryDx=0;entryDy=0;" edge="1" parent="1" source="pS2DYy71IKiF--Z-IAtA-12" target="pS2DYy71IKiF--Z-IAtA-65">
          <mxGeometry relative="1" as="geometry" />
        </mxCell>
        <mxCell id="pS2DYy71IKiF--Z-IAtA-12" value="&lt;div&gt;&lt;span style=&quot;background-color: initial;&quot;&gt;J = 0&lt;/span&gt;&lt;br&gt;&lt;/div&gt;&lt;div&gt;D = 0&lt;br&gt;T = 0&lt;br&gt;S = 0&lt;br&gt;P = 0&lt;/div&gt;&lt;div&gt;VSE = 0&lt;/div&gt;&lt;div&gt;POC = 0&lt;/div&gt;&lt;div&gt;PRI = 0&lt;/div&gt;" style="rounded=0;whiteSpace=wrap;html=1;" vertex="1" parent="1">
          <mxGeometry x="220" y="150" width="140" height="140" as="geometry" />
        </mxCell>
        <mxCell id="pS2DYy71IKiF--Z-IAtA-13" value="nie" style="text;html=1;align=center;verticalAlign=middle;resizable=0;points=[];autosize=1;strokeColor=none;fillColor=none;" vertex="1" parent="1">
          <mxGeometry x="350" y="591.54" width="40" height="30" as="geometry" />
        </mxCell>
        <mxCell id="pS2DYy71IKiF--Z-IAtA-14" value="ano" style="text;html=1;align=center;verticalAlign=middle;resizable=0;points=[];autosize=1;strokeColor=none;fillColor=none;" vertex="1" parent="1">
          <mxGeometry x="210" y="581.54" width="40" height="30" as="geometry" />
        </mxCell>
        <mxCell id="pS2DYy71IKiF--Z-IAtA-15" value="ano" style="text;html=1;align=center;verticalAlign=middle;resizable=0;points=[];autosize=1;strokeColor=none;fillColor=none;" vertex="1" parent="1">
          <mxGeometry x="350" y="703.54" width="40" height="30" as="geometry" />
        </mxCell>
        <mxCell id="pS2DYy71IKiF--Z-IAtA-16" value="ano" style="text;html=1;align=center;verticalAlign=middle;resizable=0;points=[];autosize=1;strokeColor=none;fillColor=none;" vertex="1" parent="1">
          <mxGeometry x="510" y="803.54" width="40" height="30" as="geometry" />
        </mxCell>
        <mxCell id="pS2DYy71IKiF--Z-IAtA-17" value="ano" style="text;html=1;align=center;verticalAlign=middle;resizable=0;points=[];autosize=1;strokeColor=none;fillColor=none;" vertex="1" parent="1">
          <mxGeometry x="650" y="913.54" width="40" height="30" as="geometry" />
        </mxCell>
        <mxCell id="pS2DYy71IKiF--Z-IAtA-18" value="ano" style="text;html=1;align=center;verticalAlign=middle;resizable=0;points=[];autosize=1;strokeColor=none;fillColor=none;" vertex="1" parent="1">
          <mxGeometry x="840" y="1013.54" width="40" height="30" as="geometry" />
        </mxCell>
        <mxCell id="pS2DYy71IKiF--Z-IAtA-19" value="ano" style="text;html=1;align=center;verticalAlign=middle;resizable=0;points=[];autosize=1;strokeColor=none;fillColor=none;" vertex="1" parent="1">
          <mxGeometry x="990" y="1083.54" width="40" height="30" as="geometry" />
        </mxCell>
        <mxCell id="pS2DYy71IKiF--Z-IAtA-20" value="nie" style="text;html=1;align=center;verticalAlign=middle;resizable=0;points=[];autosize=1;strokeColor=none;fillColor=none;" vertex="1" parent="1">
          <mxGeometry x="500" y="703.54" width="40" height="30" as="geometry" />
        </mxCell>
        <mxCell id="pS2DYy71IKiF--Z-IAtA-21" value="nie" style="text;html=1;align=center;verticalAlign=middle;resizable=0;points=[];autosize=1;strokeColor=none;fillColor=none;" vertex="1" parent="1">
          <mxGeometry x="630" y="803.54" width="40" height="30" as="geometry" />
        </mxCell>
        <mxCell id="pS2DYy71IKiF--Z-IAtA-22" value="nie" style="text;html=1;align=center;verticalAlign=middle;resizable=0;points=[];autosize=1;strokeColor=none;fillColor=none;" vertex="1" parent="1">
          <mxGeometry x="810" y="913.54" width="40" height="30" as="geometry" />
        </mxCell>
        <mxCell id="pS2DYy71IKiF--Z-IAtA-23" value="nie" style="text;html=1;align=center;verticalAlign=middle;resizable=0;points=[];autosize=1;strokeColor=none;fillColor=none;" vertex="1" parent="1">
          <mxGeometry x="940" y="963.54" width="40" height="30" as="geometry" />
        </mxCell>
        <mxCell id="pS2DYy71IKiF--Z-IAtA-24" value="nie" style="text;html=1;align=center;verticalAlign=middle;resizable=0;points=[];autosize=1;strokeColor=none;fillColor=none;" vertex="1" parent="1">
          <mxGeometry x="1100" y="1063.54" width="40" height="30" as="geometry" />
        </mxCell>
        <mxCell id="pS2DYy71IKiF--Z-IAtA-35" value="&lt;div&gt;&lt;font style=&quot;font-size: 36px;&quot;&gt;VÝSTUP&lt;/font&gt;&lt;/div&gt;&lt;div&gt;&lt;font style=&quot;font-size: 24px;&quot;&gt;&quot;SUCET ZNAMOK: &quot;, vse&lt;br&gt;&lt;/font&gt;&lt;/div&gt;&lt;div&gt;&lt;font style=&quot;font-size: 24px;&quot;&gt;&quot;POCET ZNAMOK: &quot;, POC&lt;/font&gt;&lt;/div&gt;&lt;div&gt;&lt;font style=&quot;font-size: 24px;&quot;&gt;&quot;PRIEMErna&amp;nbsp; ZNAMKA&quot;, PRI&lt;/font&gt;&lt;/div&gt;&lt;div&gt;&lt;font style=&quot;font-size: 24px;&quot;&gt;&quot;JEDNOTKY; &quot;, J&lt;br&gt;&lt;/font&gt;&lt;/div&gt;&lt;div&gt;&lt;font style=&quot;font-size: 24px;&quot;&gt;&quot;DVOJKY; &quot;, D&lt;/font&gt;&lt;/div&gt;&lt;div&gt;&lt;font style=&quot;font-size: 24px;&quot;&gt;&quot;TROJKY; &quot;, T&lt;/font&gt;&lt;/div&gt;&lt;div&gt;&lt;font style=&quot;font-size: 24px;&quot;&gt;&quot;STVORKY; &quot;, S&lt;/font&gt;&lt;/div&gt;&lt;div&gt;&lt;font style=&quot;font-size: 24px;&quot;&gt;&quot;PATKY: &quot;, P&lt;/font&gt;&lt;/div&gt;" style="shape=parallelogram;perimeter=parallelogramPerimeter;whiteSpace=wrap;html=1;fixedSize=1;fontFamily=Bangers;fontSource=https%3A%2F%2Ffonts.googleapis.com%2Fcss%3Ffamily%3DBangers;" vertex="1" parent="1">
          <mxGeometry x="735" y="290" width="250" height="277.08" as="geometry" />
        </mxCell>
        <mxCell id="pS2DYy71IKiF--Z-IAtA-36" value="&lt;font style=&quot;font-size: 36px;&quot;&gt;KONIEC&lt;/font&gt;" style="ellipse;whiteSpace=wrap;html=1;fontFamily=Bangers;fontSource=https%3A%2F%2Ffonts.googleapis.com%2Fcss%3Ffamily%3DBangers;" vertex="1" parent="1">
          <mxGeometry x="1045.000000000001" y="370.61999999999995" width="160" height="110" as="geometry" />
        </mxCell>
        <mxCell id="pS2DYy71IKiF--Z-IAtA-37" style="edgeStyle=orthogonalEdgeStyle;rounded=0;orthogonalLoop=1;jettySize=auto;html=1;exitX=1;exitY=0.5;exitDx=0;exitDy=0;entryX=0.002;entryY=0.545;entryDx=0;entryDy=0;entryPerimeter=0;" edge="1" parent="1" source="pS2DYy71IKiF--Z-IAtA-35" target="pS2DYy71IKiF--Z-IAtA-36">
          <mxGeometry relative="1" as="geometry">
            <Array as="points">
              <mxPoint x="985.0500000000002" y="430.6999999999999" />
            </Array>
          </mxGeometry>
        </mxCell>
        <mxCell id="pS2DYy71IKiF--Z-IAtA-38" value="" style="edgeStyle=orthogonalEdgeStyle;rounded=0;orthogonalLoop=1;jettySize=auto;html=1;exitX=1;exitY=0.5;exitDx=0;exitDy=0;entryX=0;entryY=0.5;entryDx=0;entryDy=0;" edge="1" parent="1" source="pS2DYy71IKiF--Z-IAtA-39" target="pS2DYy71IKiF--Z-IAtA-35">
          <mxGeometry relative="1" as="geometry">
            <mxPoint x="360.0000000000009" y="430.61999999999995" as="sourcePoint" />
            <mxPoint x="485.0000000000009" y="430.61999999999995" as="targetPoint" />
          </mxGeometry>
        </mxCell>
        <mxCell id="pS2DYy71IKiF--Z-IAtA-39" value="&lt;font style=&quot;font-size: 24px;&quot;&gt;pRI = vse / poc&lt;/font&gt;" style="rounded=0;whiteSpace=wrap;html=1;fontFamily=Bangers;fontSource=https%3A%2F%2Ffonts.googleapis.com%2Fcss%3Ffamily%3DBangers;" vertex="1" parent="1">
          <mxGeometry x="490.0000000000009" y="398.53999999999996" width="120" height="60" as="geometry" />
        </mxCell>
        <mxCell id="pS2DYy71IKiF--Z-IAtA-74" style="edgeStyle=orthogonalEdgeStyle;rounded=0;orthogonalLoop=1;jettySize=auto;html=1;exitX=0.5;exitY=1;exitDx=0;exitDy=0;entryX=0.5;entryY=0;entryDx=0;entryDy=0;" edge="1" parent="1" source="pS2DYy71IKiF--Z-IAtA-43" target="pS2DYy71IKiF--Z-IAtA-12">
          <mxGeometry relative="1" as="geometry" />
        </mxCell>
        <mxCell id="pS2DYy71IKiF--Z-IAtA-43" value="&lt;font data-font-src=&quot;https://fonts.googleapis.com/css?family=Bangers&quot; face=&quot;Bangers&quot; style=&quot;font-size: 48px;&quot;&gt;Štart&lt;/font&gt;" style="ellipse;whiteSpace=wrap;html=1;" vertex="1" parent="1">
          <mxGeometry x="210" y="10.000000000000455" width="160" height="120" as="geometry" />
        </mxCell>
        <mxCell id="pS2DYy71IKiF--Z-IAtA-64" style="edgeStyle=orthogonalEdgeStyle;rounded=0;orthogonalLoop=1;jettySize=auto;html=1;exitX=0.5;exitY=1;exitDx=0;exitDy=0;" edge="1" parent="1" source="pS2DYy71IKiF--Z-IAtA-45">
          <mxGeometry relative="1" as="geometry">
            <mxPoint x="190" y="853.5399999999997" as="targetPoint" />
            <Array as="points">
              <mxPoint x="290" y="853.54" />
            </Array>
          </mxGeometry>
        </mxCell>
        <mxCell id="pS2DYy71IKiF--Z-IAtA-45" value="&lt;font style=&quot;font-size: 24px;&quot;&gt;J = J + 1&lt;/font&gt;" style="rounded=0;whiteSpace=wrap;html=1;fontFamily=Bangers;fontSource=https%3A%2F%2Ffonts.googleapis.com%2Fcss%3Ffamily%3DBangers;" vertex="1" parent="1">
          <mxGeometry x="230" y="723.5400000000004" width="120" height="60" as="geometry" />
        </mxCell>
        <mxCell id="pS2DYy71IKiF--Z-IAtA-63" style="edgeStyle=orthogonalEdgeStyle;rounded=0;orthogonalLoop=1;jettySize=auto;html=1;exitX=0.5;exitY=1;exitDx=0;exitDy=0;" edge="1" parent="1" source="pS2DYy71IKiF--Z-IAtA-46">
          <mxGeometry relative="1" as="geometry">
            <mxPoint x="450.0588235294117" y="1133.54" as="targetPoint" />
          </mxGeometry>
        </mxCell>
        <mxCell id="pS2DYy71IKiF--Z-IAtA-46" value="&lt;font style=&quot;font-size: 24px;&quot;&gt;D = D + 1&lt;/font&gt;" style="rounded=0;whiteSpace=wrap;html=1;fontFamily=Bangers;fontSource=https%3A%2F%2Ffonts.googleapis.com%2Fcss%3Ffamily%3DBangers;" vertex="1" parent="1">
          <mxGeometry x="390" y="833.5400000000004" width="120" height="60" as="geometry" />
        </mxCell>
        <mxCell id="pS2DYy71IKiF--Z-IAtA-62" style="edgeStyle=orthogonalEdgeStyle;rounded=0;orthogonalLoop=1;jettySize=auto;html=1;exitX=0.5;exitY=1;exitDx=0;exitDy=0;" edge="1" parent="1" source="pS2DYy71IKiF--Z-IAtA-47">
          <mxGeometry relative="1" as="geometry">
            <mxPoint x="579.4705882352941" y="1133.54" as="targetPoint" />
          </mxGeometry>
        </mxCell>
        <mxCell id="pS2DYy71IKiF--Z-IAtA-47" value="&lt;font style=&quot;font-size: 24px;&quot;&gt;T = T + 1&lt;/font&gt;" style="rounded=0;whiteSpace=wrap;html=1;fontFamily=Bangers;fontSource=https%3A%2F%2Ffonts.googleapis.com%2Fcss%3Ffamily%3DBangers;" vertex="1" parent="1">
          <mxGeometry x="520" y="923.5400000000004" width="120" height="60" as="geometry" />
        </mxCell>
        <mxCell id="pS2DYy71IKiF--Z-IAtA-61" style="edgeStyle=orthogonalEdgeStyle;rounded=0;orthogonalLoop=1;jettySize=auto;html=1;exitX=0.5;exitY=1;exitDx=0;exitDy=0;" edge="1" parent="1" source="pS2DYy71IKiF--Z-IAtA-48">
          <mxGeometry relative="1" as="geometry">
            <mxPoint x="759.4705882352941" y="1133.54" as="targetPoint" />
          </mxGeometry>
        </mxCell>
        <mxCell id="pS2DYy71IKiF--Z-IAtA-48" value="&lt;font style=&quot;font-size: 24px;&quot;&gt;S = S + 1&lt;/font&gt;" style="rounded=0;whiteSpace=wrap;html=1;fontFamily=Bangers;fontSource=https%3A%2F%2Ffonts.googleapis.com%2Fcss%3Ffamily%3DBangers;" vertex="1" parent="1">
          <mxGeometry x="700" y="1013.5400000000004" width="120" height="60" as="geometry" />
        </mxCell>
        <mxCell id="pS2DYy71IKiF--Z-IAtA-59" style="edgeStyle=orthogonalEdgeStyle;rounded=0;orthogonalLoop=1;jettySize=auto;html=1;exitX=0;exitY=0.5;exitDx=0;exitDy=0;entryX=0.5;entryY=1;entryDx=0;entryDy=0;" edge="1" parent="1" source="pS2DYy71IKiF--Z-IAtA-49" target="pS2DYy71IKiF--Z-IAtA-44">
          <mxGeometry relative="1" as="geometry" />
        </mxCell>
        <mxCell id="pS2DYy71IKiF--Z-IAtA-49" value="&lt;font style=&quot;font-size: 24px;&quot;&gt;P = P + 1&lt;/font&gt;" style="rounded=0;whiteSpace=wrap;html=1;fontFamily=Bangers;fontSource=https%3A%2F%2Ffonts.googleapis.com%2Fcss%3Ffamily%3DBangers;" vertex="1" parent="1">
          <mxGeometry x="865.05" y="1103.5400000000004" width="120" height="60" as="geometry" />
        </mxCell>
        <mxCell id="pS2DYy71IKiF--Z-IAtA-60" style="edgeStyle=orthogonalEdgeStyle;rounded=0;orthogonalLoop=1;jettySize=auto;html=1;exitX=0.5;exitY=0;exitDx=0;exitDy=0;" edge="1" parent="1">
          <mxGeometry relative="1" as="geometry">
            <mxPoint x="290" y="414" as="targetPoint" />
            <mxPoint x="189.97" y="643.5400000000004" as="sourcePoint" />
            <Array as="points">
              <mxPoint x="190" y="519.54" />
              <mxPoint x="140" y="519.54" />
              <mxPoint x="140" y="413.54" />
            </Array>
          </mxGeometry>
        </mxCell>
        <mxCell id="pS2DYy71IKiF--Z-IAtA-44" value="&lt;font style=&quot;font-size: 24px;&quot;&gt;poc = poc + 1&lt;/font&gt;" style="rounded=0;whiteSpace=wrap;html=1;fontFamily=Bangers;fontSource=https%3A%2F%2Ffonts.googleapis.com%2Fcss%3Ffamily%3DBangers;" vertex="1" parent="1">
          <mxGeometry x="130" y="633.5400000000004" width="120" height="60" as="geometry" />
        </mxCell>
        <mxCell id="pS2DYy71IKiF--Z-IAtA-65" value="&lt;div&gt;&lt;font style=&quot;font-size: 36px;&quot;&gt;VÝSTUP&lt;/font&gt;&lt;/div&gt;&lt;div&gt;&lt;font style=&quot;font-size: 24px;&quot;&gt;&quot;ZADAJTE ZNAMKY Zadajte 0 pre koniec&quot;&lt;br&gt;&lt;/font&gt;&lt;/div&gt;" style="shape=parallelogram;perimeter=parallelogramPerimeter;whiteSpace=wrap;html=1;fixedSize=1;fontFamily=Bangers;fontSource=https%3A%2F%2Ffonts.googleapis.com%2Fcss%3Ffamily%3DBangers;" vertex="1" parent="1">
          <mxGeometry x="145" y="300" width="290" height="90" as="geometry" />
        </mxCell>
        <mxCell id="pS2DYy71IKiF--Z-IAtA-70" style="edgeStyle=orthogonalEdgeStyle;rounded=0;orthogonalLoop=1;jettySize=auto;html=1;exitX=0.5;exitY=1;exitDx=0;exitDy=0;" edge="1" parent="1" source="pS2DYy71IKiF--Z-IAtA-67">
          <mxGeometry relative="1" as="geometry">
            <mxPoint x="140" y="511.1764705882351" as="targetPoint" />
            <Array as="points">
              <mxPoint x="1315" y="1174" />
              <mxPoint x="100" y="1174" />
              <mxPoint x="100" y="511" />
            </Array>
          </mxGeometry>
        </mxCell>
        <mxCell id="pS2DYy71IKiF--Z-IAtA-67" value="&lt;div&gt;&lt;font style=&quot;font-size: 36px;&quot;&gt;VÝSTUP&lt;/font&gt;&lt;/div&gt;&lt;div&gt;&lt;font style=&quot;font-size: 24px;&quot;&gt;&quot;CHYBA ZADAJ CISLA MEDZI 0 AZ 5&quot;&lt;br&gt;&lt;/font&gt;&lt;/div&gt;" style="shape=parallelogram;perimeter=parallelogramPerimeter;whiteSpace=wrap;html=1;fixedSize=1;fontFamily=Bangers;fontSource=https%3A%2F%2Ffonts.googleapis.com%2Fcss%3Ffamily%3DBangers;" vertex="1" parent="1">
          <mxGeometry x="1170" y="1063.54" width="290" height="90" as="geometry" />
        </mxCell>
        <mxCell id="pS2DYy71IKiF--Z-IAtA-73" style="edgeStyle=orthogonalEdgeStyle;rounded=0;orthogonalLoop=1;jettySize=auto;html=1;exitX=0.5;exitY=1;exitDx=0;exitDy=0;entryX=0.5;entryY=0;entryDx=0;entryDy=0;" edge="1" parent="1" source="pS2DYy71IKiF--Z-IAtA-71" target="pS2DYy71IKiF--Z-IAtA-5">
          <mxGeometry relative="1" as="geometry" />
        </mxCell>
        <mxCell id="pS2DYy71IKiF--Z-IAtA-71" value="&lt;font style=&quot;font-size: 24px;&quot;&gt;VSE = VSE + A&lt;/font&gt;" style="rounded=0;whiteSpace=wrap;html=1;fontFamily=Bangers;fontSource=https%3A%2F%2Ffonts.googleapis.com%2Fcss%3Ffamily%3DBangers;" vertex="1" parent="1">
          <mxGeometry x="570" y="561.5400000000004" width="120" height="60" as="geometry" />
        </mxCell>
        <mxCell id="pS2DYy71IKiF--Z-IAtA-76" value="" style="edgeStyle=orthogonalEdgeStyle;rounded=0;orthogonalLoop=1;jettySize=auto;html=1;exitX=1;exitY=0.5;exitDx=0;exitDy=0;entryX=0.5;entryY=0;entryDx=0;entryDy=0;" edge="1" parent="1" source="pS2DYy71IKiF--Z-IAtA-4" target="pS2DYy71IKiF--Z-IAtA-75">
          <mxGeometry relative="1" as="geometry">
            <mxPoint x="370" y="494" as="sourcePoint" />
            <mxPoint x="495" y="532" as="targetPoint" />
          </mxGeometry>
        </mxCell>
        <mxCell id="pS2DYy71IKiF--Z-IAtA-79" style="edgeStyle=orthogonalEdgeStyle;rounded=0;orthogonalLoop=1;jettySize=auto;html=1;exitX=0;exitY=0.5;exitDx=0;exitDy=0;entryX=0.5;entryY=0;entryDx=0;entryDy=0;" edge="1" parent="1" source="pS2DYy71IKiF--Z-IAtA-75" target="pS2DYy71IKiF--Z-IAtA-67">
          <mxGeometry relative="1" as="geometry">
            <Array as="points">
              <mxPoint x="470" y="552" />
              <mxPoint x="470" y="680" />
              <mxPoint x="1315" y="680" />
            </Array>
          </mxGeometry>
        </mxCell>
        <mxCell id="pS2DYy71IKiF--Z-IAtA-75" value="A &amp;lt;= 0&lt;div&gt;A &amp;gt;= 5&lt;/div&gt;" style="rhombus;whiteSpace=wrap;html=1;" vertex="1" parent="1">
          <mxGeometry x="480" y="511.53999999999996" width="80" height="80" as="geometry" />
        </mxCell>
        <mxCell id="pS2DYy71IKiF--Z-IAtA-77" value="MEDZI" style="text;html=1;align=center;verticalAlign=middle;resizable=0;points=[];autosize=1;strokeColor=none;fillColor=none;" vertex="1" parent="1">
          <mxGeometry x="570" y="508" width="60" height="30" as="geometry" />
        </mxCell>
        <mxCell id="pS2DYy71IKiF--Z-IAtA-78" value="MIMO" style="text;html=1;align=center;verticalAlign=middle;resizable=0;points=[];autosize=1;strokeColor=none;fillColor=none;" vertex="1" parent="1">
          <mxGeometry x="440" y="518" width="60" height="30" as="geometry" />
        </mxCell>
      </root>
    </mxGraphModel>
  </diagram>
</mxfile>
